# xmcd
#
# Track frame offsets:
#	150
#	15460
#	28052
#	41464
#	52189
#	65102
#	78947
#	107552
#	120375
#	133695
#	146767
#	164990
#	181052
#	196677
#	212190
#	229430
#
# Disc length: 3300 seconds
#
# Revision: 1
# Processed by: cddbd v1.5.2PL0 Copyright (c) Steve Scherf et al.
# Submitted via: audiograbber 1.83.01
#
DISCID=e70ce210
DTITLE=Robert Shumy - IT'S PICKIN' TIME
DYEAR=1900
DGENRE=
TTITLE0=ALL MY EX'S LIVE IN TEXAS
TTITLE1=YOU'RE A REAL GOOD FRIEND
TTITLE2=IT'S PEACHPICKIN' TIME IN GEORGIA
TTITLE3=I'M GONNA HAVE A LITTLE TALK WITH JESUS
TTITLE4=HARRY LIME THEME
TTITLE5=SWEET HOME CHICAGO
TTITLE6=LOVESICK BLUES
TTITLE7=SUGAR MOON
TTITLE8=CHILDREN GO
TTITLE9=TODAY I STARTED LOVIN' YOU AGAIN
TTITLE10=LET ME PLAY WITH IT
TTITLE11=ROBERT'S WALTZ
TTITLE12=THERE'LL ALWAYS BE A HONKYTONK 
TTITLE13=SOMEWHERE
TTITLE14=WHISKEY DRINKIN' WOMAN
TTITLE15=MISTERY TRAIN
EXTD=
EXTT0=
EXTT1=
EXTT2=
EXTT3=
EXTT4=
EXTT5=
EXTT6=
EXTT7=
EXTT8=
EXTT9=
EXTT10=
EXTT11=
EXTT12=
EXTT13=
EXTT14=
EXTT15=
PLAYORDER=
